<?xml version="1.0" standalone="no"?>
<!DOCTYPE svg PUBLIC "-//W3C//DTD SVG 20010904//EN"
 "http://www.w3.org/TR/2001/REC-SVG-20010904/DTD/svg10.dtd">
<svg version="1.0" xmlns="http://www.w3.org/2000/svg"
 width="600.000000pt" height="600.000000pt" viewBox="0 0 600.000000 600.000000"
 preserveAspectRatio="xMidYMid meet">
<metadata>
Created by potrace 1.14, written by Peter Selinger 2001-2017
</metadata>
<g transform="translate(0.000000,600.000000) scale(0.100000,-0.100000)"
fill="#000000" stroke="none">
<path d="M2442 4563 c1 -5 -7 -26 -19 -48 -11 -22 -75 -159 -141 -305 -66
-146 -153 -335 -192 -420 -39 -85 -110 -240 -158 -345 -48 -104 -256 -559
-462 -1010 l-376 -820 65 -8 c84 -11 202 -11 264 0 l49 8 158 349 c87 192 164
353 172 357 7 5 47 9 88 9 l75 0 65 146 c36 80 67 149 68 155 2 5 -31 9 -78 9
-45 0 -80 4 -78 9 32 88 505 1148 510 1143 6 -7 417 -941 462 -1049 l21 -53
188 0 c104 0 186 3 184 8 -3 4 -100 214 -215 467 -205 450 -564 1233 -617
1348 -14 31 -28 57 -31 57 -2 0 -3 -3 -2 -7z"/>
<path d="M2906 4278 c-71 -156 -129 -288 -129 -294 0 -19 167 -383 174 -378 3
2 23 44 44 94 21 50 41 92 44 94 3 2 72 -147 153 -332 81 -186 194 -444 252
-574 57 -130 101 -240 98 -243 -3 -3 -230 -5 -504 -5 -356 0 -498 3 -498 11 0
6 40 103 90 215 l90 204 -89 202 -89 201 -20 -39 c-11 -21 -54 -115 -97 -209
-43 -93 -139 -305 -215 -470 -391 -852 -521 -1137 -518 -1140 4 -4 166 -19
193 -17 11 0 56 3 100 7 l80 6 18 42 c9 23 82 184 160 357 l144 315 648 3
c380 1 653 -2 658 -7 5 -5 80 -166 167 -358 l158 -348 44 -7 c60 -11 169 -12
259 -3 l77 8 -45 96 c-25 53 -164 357 -310 676 -456 996 -691 1509 -840 1835
-80 173 -147 321 -150 328 -3 6 -8 12 -12 12 -3 0 -64 -127 -135 -282z"/>
<path d="M3130 2273 c0 -5 65 -151 145 -327 80 -175 145 -322 145 -326 0 -19
359 -24 378 -6 2 2 -23 62 -56 133 -32 70 -101 219 -152 331 l-93 202 -184 0
c-100 0 -183 -3 -183 -7z"/>
</g>
</svg>
